<?xml version="1.0" encoding="utf-8"?><!-- Uploaded to: SVG Repo, www.svgrepo.com, Generator: SVG Repo Mixer Tools -->
<svg fill="#000000" width="800px" height="800px" viewBox="0 0 24 24" id="airbnb" data-name="Flat Color" xmlns="http://www.w3.org/2000/svg" class="icon flat-color"><path id="primary" d="M16.46,22a4.47,4.47,0,0,1-3.2-1.33L12,19.41l-1.26,1.26A4.47,4.47,0,0,1,7.54,22,4.54,4.54,0,0,1,3,17.46a11.5,11.5,0,0,1,1.21-5.11l4-8a4.24,4.24,0,0,1,7.58,0l4,8A11.5,11.5,0,0,1,21,17.46,4.54,4.54,0,0,1,16.46,22Zm-3.05-4,1.26,1.26A2.54,2.54,0,0,0,19,17.46a9.42,9.42,0,0,0-1-4.22l-4-8a2.23,2.23,0,0,0-4,0l-4,8a9.42,9.42,0,0,0-1,4.22,2.54,2.54,0,0,0,4.33,1.8L10.59,18A5.89,5.89,0,0,1,9,14a3,3,0,0,1,6,0A5.89,5.89,0,0,1,13.41,18ZM12,13a1,1,0,0,0-1,1,3.84,3.84,0,0,0,1,2.58A3.84,3.84,0,0,0,13,14,1,1,0,0,0,12,13Z" style="fill: rgb(0, 0, 0);"></path></svg>